<?xml version="1.0" encoding="UTF-8" standalone="no"?>
<!-- Created with Inkscape (http://www.inkscape.org/) -->

<svg
   width="1023.5917"
   height="1023.5916"
   viewBox="0 0 270.82531 270.82526"
   version="1.1"
   id="svg1"
   xml:space="preserve"
   sodipodi:docname="design.svg"
   inkscape:version="1.4.3 (0d15f75042, 2025-12-25)"
   inkscape:export-filename="../spectrum_launcher/spectum_launcher_dark.svg"
   inkscape:export-xdpi="96"
   inkscape:export-ydpi="96"
   xmlns:inkscape="http://www.inkscape.org/namespaces/inkscape"
   xmlns:sodipodi="http://sodipodi.sourceforge.net/DTD/sodipodi-0.dtd"
   xmlns="http://www.w3.org/2000/svg"
   xmlns:svg="http://www.w3.org/2000/svg"><sodipodi:namedview
     id="namedview1"
     pagecolor="#ffffff"
     bordercolor="#000000"
     borderopacity="0.25"
     inkscape:showpageshadow="2"
     inkscape:pageopacity="0.0"
     inkscape:pagecheckerboard="0"
     inkscape:deskcolor="#ffffff"
     inkscape:document-units="mm"
     showgrid="true"
     inkscape:zoom="0.19645691"
     inkscape:cx="15723.55"
     inkscape:cy="1445.6096"
     inkscape:window-width="2560"
     inkscape:window-height="1360"
     inkscape:window-x="0"
     inkscape:window-y="0"
     inkscape:window-maximized="1"
     inkscape:current-layer="layer1"
     inkscape:export-bgcolor="#ffffff00"><inkscape:grid
       id="grid2"
       units="mm"
       originx="-3642.1147"
       originy="-369.31976"
       spacingx="4"
       spacingy="4"
       empcolor="#0099e5"
       empopacity="0.09803922"
       color="#0099e5"
       opacity="0.14901961"
       empspacing="5"
       enabled="true"
       visible="false"
       dotted="false" /><inkscape:page
       x="0"
       y="0"
       width="270.82532"
       height="270.82526"
       id="page2"
       margin="0"
       bleed="0" /></sodipodi:namedview><defs
     id="defs1" /><g
     inkscape:label="Logos"
     inkscape:groupmode="layer"
     id="layer1"
     transform="translate(-4182.1146,-909.31983)"><g
       id="g51"
       inkscape:label="spectrum-launcher-light"
       transform="translate(4182.0608,909.26573)"
       inkscape:export-filename="../spectrum_launcher/spectrum_launcher_light.png"
       inkscape:export-xdpi="96"
       inkscape:export-ydpi="96"><path
         id="path51"
         style="display:inline;fill:#0c090d;fill-opacity:1;stroke:none;stroke-width:17.8068;stroke-dasharray:none;stroke-opacity:1"
         d="m 133.21251,97.097496 24.51044,-24.511034 c 3.09023,-3.090164 7.28146,-4.826147 11.65166,-4.82604 h 26.97299 c 3.76954,-2.17e-4 6.82551,3.055487 6.82561,6.82503 v 26.973568 c -5e-5,4.37028 -1.73625,8.56152 -4.82662,11.65165 l -24.51045,24.51045 m -36.11528,36.11527 -24.51048,24.51049 c -3.09023,3.09016 -7.28147,4.82614 -11.65166,4.82603 H 74.585743 c -3.769547,2.2e-4 -6.825516,-3.05548 -6.82562,-6.82503 v -26.97357 c 2.07e-4,-4.37008 1.736395,-8.56108 4.82663,-11.65107 l 24.51047,-24.51047"
         sodipodi:nodetypes="cccccccccccccccc" /><path
         id="path49"
         style="fill:#f50376;fill-opacity:1;stroke:none;stroke-width:29.6779;stroke-dasharray:none;stroke-opacity:1"
         d="m 142.2918,0.05403017 c -0.64927,0.0040761 -1.29774,0.04652479 -1.942,0.127124 -0.1874,0.02227 -0.3725,0.05509 -0.55862,0.08372 -0.47849,0.0734367 -0.95351,0.16792408 -1.42368,0.283187 -0.18104,0.04446 -0.36286,0.0859 -0.54209,0.136426 -0.62478,0.17157175 -1.2389,0.37984473 -1.83916,0.62373403 -0.59633,0.2515241 -1.17732,0.5379634 -1.73995,0.857829 -0.1646,0.09218 -0.32424,0.193053 -0.48576,0.290938 -0.41113,0.2493742 -0.81114,0.516625 -1.19889,0.800985 -0.15373,0.112676 -0.30935,0.222336 -0.4594,0.340548 -0.51211,0.3980461 -1.00027,0.8259824 -1.46193,1.281575 L 85.818196,49.703247 119.67091,83.555967 153.20948,50.017903 c 1.38549,-1.385538 3.00699,-2.512855 4.78834,-3.32899 0.60171,-0.27566 1.21965,-0.51475 1.85054,-0.71624 0.72491,-0.23151 1.46671,-0.41301 2.22053,-0.5426 3.4e-4,-6e-5 7e-4,6e-5 10e-4,0 0.92173,-0.15846 1.85527,-0.238158 2.79052,-0.23823 h 4.62143 L 214.61965,0.05403417 Z M 270.8793,58.663893 225.74201,103.80118 v 2.2717 l -0.002,0.032 c -0.001,0.64029 -0.0505,1.27416 -0.12506,1.90376 -0.0252,0.19238 -0.0538,0.3843 -0.0858,0.57567 -0.073,0.47234 -0.16533,0.93915 -0.27853,1.40147 -0.0437,0.18788 -0.0908,0.37497 -0.14108,0.5612 -0.17292,0.61224 -0.37034,1.2168 -0.61237,1.80403 -0.007,0.0176 -0.0144,0.0352 -0.0217,0.0527 -0.24396,0.58614 -0.53187,1.1524 -0.84233,1.70739 -0.0971,0.16919 -0.19719,0.33665 -0.30024,0.50229 -0.24527,0.40409 -0.50825,0.79675 -0.78858,1.17978 -0.11445,0.16057 -0.23178,0.31907 -0.35192,0.47542 -0.38891,0.49317 -0.79921,0.97138 -1.24643,1.4211 -0.01,0.0115 -0.02,0.0231 -0.03,0.0346 l -33.53858,33.53754 33.85272,33.85323 44.82264,-44.82263 c 0.45399,-0.45978 0.88054,-0.94586 1.27744,-1.45573 0.12223,-0.155 0.23508,-0.31599 0.3514,-0.47491 0.27968,-0.38175 0.54278,-0.77537 0.78858,-1.17977 0.10126,-0.1668 0.20508,-0.33219 0.30024,-0.50229 0.31856,-0.56036 0.60396,-1.13892 0.85473,-1.73271 0.24311,-0.5981 0.45087,-1.20997 0.62218,-1.83245 0.052,-0.18419 0.0944,-0.37097 0.14005,-0.55707 0.1143,-0.46714 0.2081,-0.93905 0.28112,-1.41439 0.0287,-0.18636 0.0609,-0.372 0.0832,-0.55965 0.0808,-0.64425 0.12339,-1.29272 0.12764,-1.942 z M 49.702187,85.8177 4.8800367,130.64037 c -0.514562,0.51457 -0.97669,1.06989 -1.41439,1.64125 -0.1100344,0.14326 -0.2177056,0.28831 -0.32297,0.43511 -0.41783,0.58438 -0.81068,1.18539 -1.14722,1.81591 -0.3162874,0.59265 -0.5960361,1.2041 -0.83768,1.8309 -0.10172,0.26381 -0.16876003,0.53987 -0.25683003,0.80873 -0.13017303,0.36575 -0.24737951,0.73598 -0.3514,1.11001 -0.087,0.34678 -0.133,0.70408 -0.1974,1.05679 -0.0666081,0.30851 -0.12433859,0.61887 -0.17312,0.93069 -0.07993,0.64662 -0.1184,1.30095 -0.12092,1.95905 -8e-5,0.0212 -0.0041,0.0419 -0.0041,0.0631 v 5.1e-4 72.32737 L 45.191297,169.4825 v -4.62194 c -10e-6,-0.65332 0.05134,-1.30029 0.12764,-1.94252 0.0247,-0.18719 0.05261,-0.37394 0.08372,-0.56017 0.07361,-0.47836 0.16729,-0.95097 0.28215,-1.41904 0.04239,-0.18214 0.08787,-0.36355 0.13643,-0.54415 0.35188,-1.24862 0.84918,-2.44885 1.48311,-3.58066 0.09321,-0.16199 0.189172,-0.32238 0.28784,-0.48111 0.2514,-0.41506 0.52092,-0.81844 0.80925,-1.2113 0.107726,-0.15067 0.217985,-0.29952 0.33073,-0.44648 0.4007,-0.50899 0.82249,-1.00334 1.28519,-1.46606 h 5.2e-4 L 83.555937,119.67093 49.702707,85.8177 Z M 151.2624,187.37791 117.7238,220.916 c -0.0144,0.0145 -0.0289,0.029 -0.0434,0.0434 -0.46036,0.45692 -0.95211,0.87328 -1.45779,1.26917 -0.151,0.11547 -0.30399,0.22831 -0.45889,0.33848 -0.38775,0.28244 -0.78557,0.54663 -1.19476,0.79323 -0.1611,0.0996 -0.3239,0.19643 -0.48834,0.29043 -0.56232,0.31298 -1.13605,0.60371 -1.73013,0.84852 h -5.2e-4 c -0.59368,0.24463 -1.20497,0.44253 -1.82417,0.6165 -0.18555,0.0498 -0.37196,0.0963 -0.55914,0.13953 -0.46033,0.11212 -0.92504,0.20421 -1.39527,0.27647 -0.18966,0.0316 -0.37986,0.0598 -0.57051,0.0847 -0.63749,0.0752 -1.27965,0.12556 -1.92804,0.12557 h -2.2717 l -45.137303,45.1373 h 69.977653 c 0.0107,0 0.0213,-0.002 0.032,-0.002 0.63682,-0.005 1.27282,-0.0466 1.9048,-0.12506 0.19224,-0.0228 0.3822,-0.0558 0.57309,-0.0853 0.4708,-0.0727 0.93822,-0.16583 1.40095,-0.27905 0.18914,-0.0463 0.3792,-0.0892 0.56637,-0.14211 0.61159,-0.1691 1.2129,-0.37339 1.80093,-0.61185 0.0176,-0.007 0.0351,-0.0144 0.0527,-0.0217 0.58579,-0.24788 1.15674,-0.52947 1.70997,-0.84336 0.16788,-0.094 0.33091,-0.19674 0.49558,-0.29662 0.40858,-0.24804 0.80617,-0.51374 1.19165,-0.79634 0.15467,-0.11333 0.31157,-0.22317 0.46251,-0.3421 0.50529,-0.39344 0.98722,-0.81601 1.44332,-1.26555 0.006,-0.006 0.0119,-0.0104 0.0176,-0.016 l 44.82215,-44.82215 z"
         sodipodi:nodetypes="ccccccccccccccsssccccccccccccccccccccccccccccccccccccsccssccccssccccccccccccccccccccccccccccccsccsccsscccccscsccc" /><path
         id="path48"
         style="opacity:1;fill:#0f79f8;fill-opacity:1;stroke:none;stroke-width:19.9568;stroke-dasharray:none;stroke-opacity:1"
         d="m 241.5943,0.05426649 c -4.37013,-5.473e-5 -8.56131,1.73593481 -11.65149,4.82606071 L 189.62024,45.191678 h 29.29641 c 3.76943,0 6.8249,3.055464 6.8249,6.824902 v 29.273676 l 40.31119,-40.3 c 3.09032,-3.090095 4.8265,-7.28127 4.82658,-11.651485 l 10e-6,-22.4595982 c -1.7e-4,-3.7694239 -3.056,-6.82502032 -6.82543,-6.82490631 z M 45.191345,189.62057 4.8800677,229.94307 c -3.090135,3.09018 -4.8261155,7.28134 -4.82606534,11.65148 v 22.4596 c 1.7328e-4,3.76943 3.05600234,6.82502 6.82542174,6.82491 l 22.4596209,1e-5 c 4.36996,-8e-5 8.560913,-1.73606 11.650968,-4.82606 L 81.289917,225.74188 H 52.016252 c -3.769534,0 -6.824911,-3.05547 -6.824902,-6.82491 z"
         sodipodi:nodetypes="cccssccccccccccccccscc" /></g></g></svg>
